<svg id="dribble" 
    xmlns="http://www.w3.org/2000/svg" viewBox="0 0 473.325 473.325">
    <path id="dribble" d="M236.662 473.297C106.162 473.297 0 367.127 0 236.65 0 106.197 106.162.028 236.662.028S473.325 106.197 473.325 236.65c0 130.477-106.163 236.647-236.663 236.647zm189.139-205.941c-6.547-2.041-59.293-17.799-119.316-8.197 25.055 68.838 35.256 124.943 37.212 136.571 42.973-29.055 73.577-75.074 82.104-128.374zM311.502 413.281c-2.867-16.803-13.988-75.386-40.884-145.254-.405.141-.826.265-1.263.421-108.032 37.619-146.819 112.584-150.271 119.629 32.467 25.313 73.297 40.424 117.578 40.424 26.529-.001 51.834-5.441 74.84-15.22zM94.348 365.024c4.332-7.435 56.914-94.473 155.704-126.409a185.73 185.73 0 017.543-2.261c-4.801-10.902-10.029-21.767-15.53-32.521-95.657 28.633-188.484 27.448-196.879 27.262a207.627 207.627 0 00-.085 5.852c0 49.207 18.649 94.121 49.247 128.077zM49.145 197.723c8.574.108 87.49.436 177.099-23.334-31.735-56.432-65.972-103.871-71.03-110.775-53.588 25.265-93.654 74.668-106.069 134.109zM191.773 50.747c5.299 7.084 40.088 54.453 71.48 112.131 68.129-25.561 96.949-64.287 100.387-69.182-33.823-30.035-78.309-48.264-126.979-48.264-15.46 0-30.486 1.839-44.888 5.315zm193.166 65.075c-4.029 5.472-36.145 46.62-106.965 75.51a625.334 625.334 0 0112.719 27.761c1.396 3.32 2.774 6.609 4.115 9.882 63.742-8.012 127.072 4.824 133.408 6.18-.429-45.21-16.584-86.726-43.277-119.333z"/>
</svg>
